
<svg width="32" height="32" viewBox="0 0 32 32" fill="none" xmlns="http://www.w3.org/2000/svg">
<rect width="32" height="32" rx="8" fill="#7AB55C"/>
<path d="M21.3 9.5c-.1-.5-.6-.8-1.1-.9-.5-.1-3.7-.3-3.7-.3s-2.4-2.4-2.9-2.9c-.3-.3-.7-.4-1.1-.3-.1 0-.2.1-.3.1-.3-.6-.8-1.4-1.7-1.4-.1 0-.2 0-.3.1C9.8 4 9.5 5.1 9.6 6.7c.1 1.5.4 3.3.7 4.7.7 3.4 1.5 6.2 1.5 6.2l9.8-.2s1.7-7.5 1.3-8.9zm-2.9-1.7c-.2 0-.4.1-.6.1v-.7c0-.6-.1-1.1-.3-1.5.8.1 1.6.3 2.2.5l-1.3 1.6zm-2.2-.8v.5c-.6.1-1.2.3-1.9.4l.5-2.9c.4.3.8.8 1 1.4.2.2.3.4.4.6zm-2.6-1.8l-.5 2.7c-.5.1-1 .2-1.4.3.1-1.2.4-2.1.8-2.6.2-.3.6-.4 1.1-.4zM9.8 7.1c.2-.5.5-.9.8-1.2 0 .6-.1 1.4-.1 2.4-.6.1-1.2.3-1.7.5.3-.6.6-1.2 1-1.7z" fill="white"/>
</svg>
