
<svg width="32" height="32" viewBox="0 0 32 32" fill="none" xmlns="http://www.w3.org/2000/svg">
<rect width="32" height="32" rx="8" fill="#7F54B3"/>
<path d="M16 6C10.5 6 6 10.5 6 16s4.5 10 10 10 10-4.5 10-10S21.5 6 16 6zm-4.8 14.2l-2.1-5.8h1.3l1.4 4.2 1.5-4.2h1.3l-2.1 5.8h-1.3zm6.1 0l-.8-2.2h-1.7l-.8 2.2h-1.3l1.7-4.4c.2-.5.4-.8.6-1.1.2-.3.5-.3.8-.3s.6.1.8.3c.2.3.4.6.6 1.1l1.7 4.4h-1.4zm-.2-5.4c-.1 0-.2 0-.2.1-.1 0-.1.1-.2.2l-.5 1.4h1.8l-.5-1.4c0-.1-.1-.2-.2-.2 0-.1-.1-.1-.2-.1zm4.2 5.4h-1.3v-5.8h1.3v5.8z" fill="white"/>
</svg>
